<?xml version="1.0" encoding="UTF-8"?>
<svg width="50px" height="51px" viewBox="0 0 50 51" version="1.1" xmlns="http://www.w3.org/2000/svg" xmlns:xlink="http://www.w3.org/1999/xlink">
    <!-- Generator: Sketch 49.3 (51167) - http://www.bohemiancoding.com/sketch -->
    <title>Group 3</title>
    <desc>Created with Sketch.</desc>
    <defs></defs>
    <g id="Page-1" stroke="none" stroke-width="1" fill="none" fill-rule="evenodd">
        <g id="HOME-Copy" transform="translate(-15.000000, -165.000000)" fill="#000000">
            <g id="Group-3" transform="translate(15.000000, 165.000000)">
                <path d="M39.9778317,35 C39.7461165,38.2224919 39.2313916,40.6538835 38.75,42.9402913 C39.4977346,42.3666667 40.2087379,41.7475728 40.8781553,41.0859223 C40.5265372,39.3139159 40.2017799,37.3708738 40.031877,35 L39.9778317,35" id="Fill-1"></path>
                <polygon id="Fill-2" points="30 42.4666667 31.9580906 42.4666667 31.9580906 27.5 30 27.5"></polygon>
                <path d="M8.73859223,7.5 L7.05768608,7.5 C6.99684466,7.56504854 6.93470874,7.62928803 6.875,7.69563107 L6.875,9.47491909 C7.45752427,8.78171521 8.07985437,8.1223301 8.73859223,7.5" id="Fill-3"></path>
                <polygon id="Fill-4" points="20 22.466343 21.9569579 22.466343 21.9569579 7.5 20 7.5"></polygon>
                <path d="M41.25,7.55420712 C41.9432039,8.21440129 42.5967638,8.91537217 43.2080906,9.652589 L43.2080906,7.84805825 C43.1014563,7.7315534 42.9933657,7.61666667 42.8831715,7.5 L41.25,7.5 L41.25,7.55420712" id="Fill-5"></path>
                <path d="M41.0819579,42.5 C40.2227346,43.2956311 39.3029935,44.0291262 38.3355178,44.6919094 C38.3296926,44.713754 38.3254854,44.7352751 38.3219256,44.7572816 L38.2426375,44.7572816 C34.4479773,47.3224919 29.8746764,48.8229773 24.9505663,48.8229773 C18.991343,48.8229773 13.5458738,46.6275081 9.375,43.0003236 L9.375,44.5592233 C13.6440939,47.9794498 19.0597896,50.0244337 24.953479,50.0244337 C31.2394013,50.0244337 36.9800162,47.6995146 41.3659385,43.8624595 C41.2712783,43.411165 41.1774272,42.9605178 41.0819579,42.5" id="Fill-6"></path>
                <path d="M7.40032362,40.7255663 C3.54142395,36.5043689 1.18754045,30.8839806 1.18754045,24.7145631 C1.18754045,20.0828479 2.51634304,15.760356 4.81100324,12.1066343 L4.81100324,10 C1.78608414,14.1260518 0,19.215534 0,24.7249191 C0,31.6597087 2.82993528,37.9317152 7.40032362,42.4503236 L7.40032362,40.7255663" id="Fill-7"></path>
                <path d="M44.8745146,10.625 L44.8745146,10.8450647 L43.5554207,10.8450647 C46.562055,14.822411 48.3450647,19.7766181 48.3450647,25.1458738 C48.3450647,30.7295307 46.4165858,35.8628641 43.1910194,39.9177184 L43.125,41.8544498 C47.1141586,37.4338997 49.5423139,31.5777508 49.5423139,25.1562298 C49.5423139,19.7330906 47.8107605,14.717233 44.8745146,10.625" id="Fill-8"></path>
                <path d="M9.73624595,6.52734628 C13.8255663,3.1868932 19.0503236,1.18365696 24.7427184,1.18365696 C30.4750809,1.18365696 35.7331715,3.21456311 39.8349515,6.59838188 C40.0993528,6.28770227 40.4276699,6.03478964 40.7959547,5.85436893 C36.4579288,2.20161812 30.8588997,0 24.7456311,0 C18.6579288,0 13.0802589,2.18268608 8.75,5.80728155 C9.12653722,5.97734628 9.46148867,6.22346278 9.73624595,6.52734628" id="Fill-9"></path>
                <polygon id="Fill-10" points="22.5 34.0056634 24.4569579 34.0056634 24.4569579 27.5 22.5 27.5"></polygon>
                <path d="M47.6781553,25.0883495 C47.6781553,19.0482201 45.3064725,13.5626214 41.4435275,9.50938511 L41.4435275,14.3320388 L43.4016181,14.3320388 C44.487055,14.3320388 45.3598706,15.2040453 45.3598706,16.2885113 L45.3598706,21.9720065 C45.3598706,23.5867314 44.0375405,24.9084142 42.42411,24.9084142 C40.8101942,24.9084142 39.4886731,23.5867314 39.4886731,21.9720065 L39.4886731,19.8320388 L41.4435275,19.8320388 L41.4435275,22.792233 L43.4016181,22.792233 L43.4016181,16.2885113 L41.4435275,16.2885113 C40.3619741,16.2885113 39.4886731,15.4152104 39.4886731,14.3320388 L39.4886731,8.64563107 C39.4886731,8.35 39.5326861,8.06391586 39.6171521,7.7933657 C39.2677994,7.49983819 38.907767,7.21456311 38.5409385,6.94190939 L38.5409385,7.82508091 L34.628479,7.82508091 L34.628479,14.3320388 L37.5626214,14.3320388 L37.5626214,16.2885113 L34.628479,16.2885113 L34.628479,22.792233 L38.5409385,22.792233 L38.5409385,24.7493528 L34.628479,24.7493528 C33.5436893,24.7493528 32.6713592,23.8762136 32.6713592,22.792233 L32.6713592,7.82508091 C32.6713592,6.74271845 33.5436893,5.86990291 34.628479,5.86990291 L36.9613269,5.86990291 C33.5106796,3.73446602 29.4457929,2.5 25.0889968,2.5 C20.7317152,2.5 16.666343,3.73446602 13.2168285,5.86990291 L17.3935275,5.86990291 L17.3935275,7.82508091 L15.438835,7.82508091 L15.438835,24.7493528 L13.4802589,24.7493528 L13.4802589,7.82508091 L11.5223301,7.82508091 L11.5223301,7.02427184 C11.236246,7.2420712 10.9529126,7.46391586 10.6776699,7.69401294 C10.7817152,7.99271845 10.838835,8.31213592 10.838835,8.64563107 L10.838835,10.7875405 L8.88187702,10.7875405 L8.88187702,9.35436893 C8.18106796,10.0773463 7.5276699,10.8469256 6.92621359,11.6585761 L6.92621359,14.3320388 L8.88187702,14.3320388 C9.96682848,14.3320388 10.838835,15.2040453 10.838835,16.2885113 L10.838835,21.9720065 C10.838835,23.5867314 9.51682848,24.9084142 7.90453074,24.9084142 C6.29174757,24.9084142 4.96941748,23.5867314 4.96941748,21.9720065 L4.96941748,19.8320388 L6.92621359,19.8320388 L6.92621359,22.792233 L8.88187702,22.792233 L8.88187702,16.2885113 L6.92621359,16.2885113 C5.97928803,16.2885113 5.1933657,15.6221683 5.00987055,14.7305825 C3.40550162,17.8339806 2.5,21.3550162 2.5,25.0883495 C2.5,30.4886731 4.39660194,35.4457929 7.55873786,39.3333333 L7.55873786,27.8414239 L5.60145631,27.8414239 L5.60145631,25.8846278 L11.4713592,25.8846278 L11.4713592,27.8414239 L9.51343042,27.8414239 L9.51343042,41.4506472 C10.4930421,42.3820388 11.5558252,43.2244337 12.6878641,43.9694175 L12.6878641,25.8846278 L14.6438511,25.8846278 L14.6438511,34.3462783 L16.6,34.3462783 L16.6,25.8846278 L18.557767,25.8846278 L18.557767,44.7650485 L16.6,44.7650485 L16.6,36.3038835 L14.6438511,36.3038835 L14.6438511,44.7650485 L13.9873786,44.7650485 C17.2658576,46.6182848 21.0529126,47.6771845 25.0889968,47.6771845 C29.3048544,47.6771845 33.2514563,46.5216828 36.6273463,44.5106796 L36.0017799,25.8846278 L37.9846278,25.8846278 C38.0097087,29.2697411 38.0885113,32.6802589 38.0885113,36.0648867 C38.0885113,37.281877 38.0368932,38.4972492 38.0368932,39.7135922 L38.0885113,39.7135922 C38.4333333,36.5932039 38.9372168,34.5043689 39.2543689,32.3634304 L40.8936893,32.3634304 C41.2090615,34.5043689 41.7105178,36.5932039 42.0555016,39.7135922 L42.1069579,39.7135922 C42.1069579,38.4972492 42.0555016,37.281877 42.0555016,36.0648867 C42.0555016,32.6802589 42.1343042,29.2697411 42.1627832,25.8846278 L44.144822,25.8846278 L43.7430421,37.826699 C46.2237864,34.2012945 47.6781553,29.8134304 47.6781553,25.0883495 Z M18.0813916,21.9720065 L18.0813916,8.64563107 C18.0813916,7.03236246 19.4037217,5.71084142 21.0156958,5.71084142 C22.6289644,5.71084142 23.9506472,7.03236246 23.9506472,8.64563107 L23.9506472,21.9720065 C23.9506472,23.5867314 22.6289644,24.9084142 21.0156958,24.9084142 C19.4037217,24.9084142 18.0813916,23.5867314 18.0813916,21.9720065 Z M27.3346278,24.7493528 L26.9713592,24.7493528 C26.9894822,24.8601942 27.0030744,24.9737864 27.0030744,25.092233 L26.9645631,25.092233 L26.9645631,25.0991909 L27.005178,25.0991909 C27.005178,25.8055016 26.6210356,26.4210356 26.052589,26.7537217 C26.2610032,27.0642395 26.3804207,27.4393204 26.3804207,27.8414239 L26.3804207,33.8177994 C26.3804207,34.7161812 25.9849515,35.0597087 25.5084142,35.3242718 C25.9849515,35.5084142 26.3804207,35.9059871 26.3804207,37.0692557 L26.3804207,43.3619741 C26.3804207,43.8915858 26.5938511,44.2881877 26.8564725,44.7650485 L24.847411,44.7650485 C24.6357605,44.3673139 24.4247573,43.8381877 24.4247573,43.3619741 L24.4247573,36.3038835 L22.4677994,36.3038835 L22.4677994,44.7650485 L20.5113269,44.7650485 L20.5113269,25.8846278 L23.3412621,25.8846278 C23.2331715,25.6449838 23.1713592,25.3783172 23.1713592,25.0991909 L23.1809061,25.0991909 C23.1809061,25.0967638 23.1800971,25.0941748 23.1800971,25.092233 L23.1687702,25.092233 C23.1687702,24.0315534 24.0265372,23.17411 25.0854369,23.17411 C25.184466,23.17411 25.2825243,23.1843042 25.3765372,23.1991909 L25.3765372,5.86990291 L27.2273463,5.86990291 C27.9148867,9.8368932 28.9202265,13.7490291 29.5008091,17.9537217 L29.5530744,17.9537217 C29.4483819,16.366343 29.2891586,13.0093851 29.2891586,11.3423948 L29.2891586,5.86990291 L31.2462783,5.86990291 L31.2462783,24.7493528 L29.3941748,24.7493528 C28.7090615,20.783657 27.7032362,16.8702265 27.1223301,12.666343 L27.0702265,12.666343 C27.1742718,14.2524272 27.3320388,17.6100324 27.3320388,19.2760518 L27.3320388,22.7110032 L27.3346278,22.7110032 L27.3346278,24.7493528 Z M34.2066343,41.9877023 C34.2066343,43.6004854 32.884466,44.9229773 31.2711974,44.9229773 C29.6576052,44.9229773 28.3355987,43.6004854 28.3355987,41.9877023 L28.3355987,28.6616505 C28.3355987,27.0491909 29.6576052,25.7260518 31.2711974,25.7260518 C32.884466,25.7260518 34.2066343,27.0491909 34.2066343,28.6616505 L34.2066343,41.9877023 L34.2066343,41.9877023 Z" id="Fill-11"></path>
                <path d="M25.5456311,24.6482201 C25.5456311,25.1436893 25.1435275,25.5454693 24.6478964,25.5454693 C24.1517799,25.5454693 23.75,25.1436893 23.75,24.6482201 C23.75,24.1521036 24.1517799,23.75 24.6478964,23.75 C25.1435275,23.75 25.5456311,24.1521036 25.5456311,24.6482201" id="Fill-12"></path>
            </g>
        </g>
    </g>
</svg>